# xmcd
#
# Track frame offsets:
# 225
# 26364
# 44084
# 61430
# 76150
# 95295
# 120513
# 138601
# 151222
# 165120
# 181264
# 196201
#
# Disc length: 2890 seconds
#
# Revision: 0
# Processed by: cddbd v1.5.2PL0 Copyright (c) Steve Scherf et al.
# Submitted via: Audion 3.0.2 (http://www.panic.com/audion/)
#
DISCID=8f0b470c
DTITLE=Eriick Hovey - Blues Farm
DYEAR=1900
DGENRE=
TTITLE0=Ball and Chain
TTITLE1=Know Who You Are
TTITLE2=Soda Pop Girl
TTITLE3=Patchouli
TTITLE4=Running With A Full Moon
TTITLE5=Fight That Monkey
TTITLE6=Baby Come Home
TTITLE7=Missing Part
TTITLE8=I'm Through
TTITLE9=Talkin Bout Love
TTITLE10=Goin Down
TTITLE11=Can't Fall Down
EXTD=
EXTT0=
EXTT1=
EXTT2=
EXTT3=
EXTT4=
EXTT5=
EXTT6=
EXTT7=
EXTT8=
EXTT9=
EXTT10=
EXTT11=
PLAYORDER=
